<?xml version="1.0" encoding="utf-8"?>
<!-- Generator: Adobe Illustrator 22.1.0, SVG Export Plug-In . SVG Version: 6.00 Build 0)  -->
<svg version="1.1" xmlns="http://www.w3.org/2000/svg" xmlns:xlink="http://www.w3.org/1999/xlink" x="0px" y="0px"
	 viewBox="0 0 1191 842" style="enable-background:new 0 0 1191 842;" xml:space="preserve">
<style type="text/css">
	.st0{display:none;fill-rule:evenodd;clip-rule:evenodd;fill:#1A1A1A;}
	.st1{fill-rule:evenodd;clip-rule:evenodd;fill:#FFFFFF;}
	.st2{fill-rule:evenodd;clip-rule:evenodd;fill:none;}
	.st3{fill:#FFFFFF;}
</style>
<g id="Слой_1">
	<path class="st0" d="M503.8,629.9H226.5v-24.8H479V332.5h24.8V629.9z M124.4,424H99.7V152.3h404.1v24.8l-97,97.1v-35.1l62-62H124.4
		V424z"/>
	<path class="st0" d="M129.7,559.3l-17.4-45.8l-17.4,45.8H129.7z M101.5,477.6H123L181.3,631h-24.4l-18.6-48.8H86.2L67.6,631H43.2
		L101.5,477.6z"/>
	<path class="st1" d="M463.2,644.9H185.9v-24.8h252.5V347.5h24.8V644.9z M83.9,439.1H59.1V167.3h404.1v24.8l-97,97.1v-35.1l62-62
		H83.9V439.1z"/>
	<path class="st1" d="M89.1,574.3l-17.4-45.8l-17.4,45.8H89.1z M60.9,492.7h21.5L140.7,646h-24.4l-18.6-48.8H45.6L27.1,646H2.6
		L60.9,492.7z"/>
	<g>
	</g>
	<g>
	</g>
	<g>
	</g>
</g>
<g id="Слой_2">
	<g>
		<polygon class="st2" points="792,235 802,235 802,235 792,235 		"/>
	</g>
	<g>
		<path class="st3" d="M561.2,170.4v14.4c-4.3-6.9-10.1-10.4-17.2-10.4c-5.4,0-10,2.3-13.8,7c-3.8,4.6-5.7,11-5.7,19
			c0,8.1,1.9,14.4,5.7,19c3.8,4.6,8.3,6.9,13.6,6.9c7.1,0,13-3.6,17.7-10.9v14.4c-5.2,4.8-11,7.2-17.5,7.2
			c-8.6,0-15.6-3.4-21.1-10.3c-5.5-6.9-8.3-15.6-8.3-26.1c0-10.6,2.8-19.4,8.3-26.4c5.6-7,12.6-10.5,21-10.5
			C550.5,163.7,556.2,165.9,561.2,170.4z"/>
		<path class="st3" d="M612.1,176.4h-17.2V235h-9.5v-58.6h-17.2v-11.1h43.9V176.4z"/>
		<path class="st3" d="M621.8,274.3l17.7-45.8l-25.3-63.1h10.9l19.5,49.8l17.9-49.8H673l-40.6,108.9H621.8z"/>
		<path class="st3" d="M687,165.4h38.6v58.6h8.2v29.5h-8.7V235h-41.8v18.5h-8.7v-29.5c4.6-0.1,8-3.1,10.2-9.1
			c1.5-3.9,2.2-10.1,2.2-18.5V165.4z M716.1,223.9v-47.5h-19.6v26.2c0,9.3-2.2,16.4-6.6,21.3H716.1z"/>
		<path class="st3" d="M743.9,165.4h9.5v46L791,160v75h-9.5v-46.5l-37.6,51.4V165.4z"/>
		<path class="st3" d="M802.7,235l17.1-28.7c-0.5,0-1.3-0.1-2.2-0.3c-0.9-0.2-2.3-0.8-4-1.7c-1.8-0.9-3.2-2.1-4.4-3.5
			c-2.9-3.5-4.4-8.1-4.4-13.9c0-6.6,1.6-11.8,4.9-15.6c3.3-3.9,8.6-5.9,16.1-5.9H845V235h-9.5v-28h-5.8l-15.6,28H802.7z
			 M835.5,196.9v-20.8h-8.9c-4.1,0-7,0.6-8.6,1.8c-2.3,1.9-3.4,4.8-3.4,8.6c0,3.8,1.1,6.6,3.4,8.4c1.7,1.3,4.5,2,8.5,2H835.5z"/>
		<path class="st3" d="M560.3,376.6v-9.9h9.5v69.6h-9.5v-9.7c-4.8,7.8-11,11.7-18.8,11.7c-7.4,0-13.7-3.2-18.9-9.7
			c-5.2-6.5-7.8-15.5-7.8-27.2c0-11.4,2.6-20.3,7.7-26.8c5.2-6.4,11.5-9.6,19-9.6C549.4,365.1,555.7,368.9,560.3,376.6z
			 M542.5,375.8c-5,0-9.3,2.3-12.8,6.8c-3.5,4.5-5.2,10.8-5.2,18.9c0,7.7,1.6,14,4.8,18.9c3.2,4.9,7.6,7.3,13.2,7.3
			c5.6,0,10-2.5,13.3-7.6s5-11.2,5-18.5c0-8.3-1.9-14.7-5.6-19.1C551.5,378,547.3,375.8,542.5,375.8z"/>
		<path class="st3" d="M597.3,426.7v49h-9.5V366.7h9.5v9.7c4.9-7.6,11.1-11.4,18.8-11.4c8.2,0,14.7,3.7,19.5,11
			c4.8,7.3,7.2,16,7.2,25.9c0,10.1-2.4,18.7-7.1,25.8c-4.8,7.1-11.2,10.7-19.2,10.7S602.1,434.5,597.3,426.7z M615.2,427.7
			c5.4,0,9.7-2.5,13-7.5c3.3-5,4.9-11,4.9-18.2c0-8.1-1.8-14.4-5.4-19.1s-7.8-7-12.6-7s-9,2.3-12.7,7s-5.6,11-5.6,19
			c0,7.3,1.7,13.4,5.1,18.4C605.3,425.2,609.7,427.7,615.2,427.7z"/>
		<path class="st3" d="M649.4,436.4l23.4-37.3l-20-32.4h11.6l14.2,23.7l14.4-23.7h11.6l-20.1,32.6l22.8,37.1h-11.6L678.4,408
			l-17.3,28.4H649.4z"/>
		<path class="st3" d="M717.5,366.7h9.5v46l37.6-51.4v75H755v-46.5l-37.6,51.4V366.7z"/>
		<path class="st3" d="M818.6,377.8h-17.2v58.6h-9.5v-58.6h-17.2v-11.1h43.9V377.8z"/>
		<path class="st3" d="M869.4,413.1l7.9,5.5c-1.9,4.5-4.1,8.2-6.7,11.2c-5,5.7-11.1,8.6-18.3,8.6c-7.4,0-13.8-3-19.1-9.1
			c-5.3-6.1-8-15.2-8-27.3c0-10.6,2.4-19.4,7.2-26.4c4.8-7,11.3-10.5,19.4-10.5c9.2,0,16.1,4.3,20.8,12.8c3.7,6.7,5.4,15.4,5.2,26.2
			H835c0.1,7,1.8,12.8,5.2,17.1c3.4,4.4,7.5,6.5,12.3,6.5c4.3,0,8.1-1.7,11.2-5C866.2,419.9,868,416.8,869.4,413.1z M835.6,393.9
			h32.3c-0.8-5.5-2.7-9.9-5.6-13.2c-3-3.3-6.5-5-10.5-5c-4,0-7.5,1.7-10.5,5.1C838.2,384.3,836.3,388.7,835.6,393.9z"/>
		<path class="st3" d="M892.3,366.7h9.5v28.5l22.2-28.5h11.6l-23.8,31l26.7,38.6h-12.4l-21.4-30.5l-2.9,3.5v27h-9.5V366.7z"/>
		<path class="st3" d="M984.1,377.8h-17.2v58.6h-9.5v-58.6h-17.2v-11.1h43.9V377.8z"/>
		<path class="st3" d="M993.8,475.7l17.7-45.8l-25.3-63.1h10.9l19.5,49.8l17.9-49.8h10.6l-40.6,108.9H993.8z"/>
		<path class="st3" d="M1064.6,426.7v49h-9.5V366.7h9.5v9.7c4.9-7.6,11.1-11.4,18.8-11.4c8.2,0,14.7,3.7,19.5,11
			c4.8,7.3,7.2,16,7.2,25.9c0,10.1-2.4,18.7-7.1,25.8c-4.8,7.1-11.2,10.7-19.2,10.7C1075.7,438.4,1069.3,434.5,1064.6,426.7z
			 M1082.4,427.7c5.4,0,9.7-2.5,13-7.5c3.3-5,4.9-11,4.9-18.2c0-8.1-1.8-14.4-5.4-19.1c-3.6-4.7-7.8-7-12.6-7c-4.8,0-9,2.3-12.7,7
			s-5.6,11-5.6,19c0,7.3,1.7,13.4,5.1,18.4C1072.5,425.2,1076.9,427.7,1082.4,427.7z"/>
		<path class="st3" d="M1124.6,436.4v-69.6h9.5v26.7h9.8c7.6,0,13.1,2.3,16.7,6.9c2.8,3.6,4.2,8.4,4.2,14.6c0,6.5-1.6,11.7-4.9,15.6
			c-3.3,3.9-8.6,5.9-16.1,5.9H1124.6z M1134.2,425.6h8.9c4,0,6.8-0.6,8.5-1.8c2.4-2,3.6-5,3.6-8.9c0-4-1.1-6.9-3.4-8.7
			c-1.6-1.3-4.4-2-8.5-2h-9V425.6z M1171.5,436.4v-69.6h9.5v69.6H1171.5z"/>
		<path class="st3" d="M518.2,568.1h9.5v46l37.6-51.4v75h-9.5v-46.5l-37.6,51.4V568.1z"/>
		<path class="st3" d="M618.1,568.1h38.6v58.6h8.2v29.5h-8.7v-18.5h-41.8v18.5h-8.7v-29.5c4.6-0.1,8-3.1,10.2-9.1
			c1.5-3.9,2.2-10.1,2.2-18.5V568.1z M647.2,626.7v-47.5h-19.6v26.2c0,9.3-2.2,16.4-6.6,21.3H647.2z"/>
		<path class="st3" d="M675,568.1h9.5v46l37.6-51.4v75h-9.5v-46.5L675,642.6V568.1z"/>
		<path class="st3" d="M747.2,585.9l-6.6-6.9c2.1-3.9,4.5-6.8,7-8.7c3.4-2.6,7.5-3.9,12-3.9c5.6,0,9.9,1.6,13,4.9
			c3.2,3.5,4.8,7.9,4.8,13.3c0,6.5-2.1,11.4-6.2,14.6c2.6,0.8,4.8,2.3,6.4,4.5c2.6,3.5,3.8,7.7,3.8,12.8c0,7.5-2.4,13.5-7.1,18
			c-3.9,3.6-9.1,5.4-15.6,5.4c-5.8,0-10.7-2-14.7-5.9c-3-2.8-5.4-6.8-7.3-11.9l8.2-4.4c1,3.1,2.6,5.8,4.9,7.9c2.5,2.3,5.5,3.5,9,3.5
			c4.1,0,7.2-0.9,9.3-2.7c2.6-2.1,3.8-5.4,3.8-9.7c0-3.6-1.1-6.3-3.3-8.1c-1.9-1.6-4.9-2.3-9-2.3H754v-11.1h4.6
			c3.4,0,5.7-0.6,7.1-1.8c1.9-1.6,2.9-3.7,2.9-6.4c0-3.1-0.8-5.5-2.4-7.2c-1.5-1.7-3.8-2.5-7-2.5c-2.7,0-5.3,0.9-7.5,2.7
			C749.8,581.4,748.3,583.5,747.2,585.9z"/>
		<path class="st3" d="M838,578v-9.9h9.5v69.6H838V628c-4.8,7.8-11,11.7-18.8,11.7c-7.4,0-13.7-3.2-18.9-9.7
			c-5.2-6.5-7.8-15.5-7.8-27.2c0-11.4,2.6-20.3,7.7-26.8c5.2-6.4,11.5-9.7,19-9.7C827.2,566.5,833.4,570.3,838,578z M820.3,577.2
			c-5,0-9.3,2.3-12.8,6.8c-3.5,4.5-5.2,10.8-5.2,18.9c0,7.7,1.6,14,4.8,18.9c3.2,4.9,7.6,7.3,13.2,7.3s10-2.5,13.3-7.6
			c3.3-5,5-11.2,5-18.5c0-8.3-1.9-14.7-5.6-19.1C829.3,579.4,825,577.2,820.3,577.2z"/>
		<path class="st3" d="M865.5,568.1h9.5v46l37.6-51.4v75h-9.5v-46.5l-37.6,51.4V568.1z M870.3,538.1l7.9-3.9
			c1.6,6.7,5.3,10.1,11.2,10.1c5.9,0,9.7-3.4,11.2-10.1l7.9,3.9c-1.4,5-3.8,9-7.2,11.9c-3.4,2.9-7.4,4.4-12,4.4
			c-4.6,0-8.6-1.5-12-4.4C874.1,547.1,871.7,543.1,870.3,538.1z"/>
		<path class="st3" d="M930.6,637.8v-69.6h9.5v28.5h25.9v-28.5h9.5v69.6h-9.5v-30h-25.9v30H930.6z"/>
		<path class="st3" d="M1035.7,578v-9.9h9.5v69.6h-9.5V628c-4.8,7.8-11,11.7-18.8,11.7c-7.4,0-13.7-3.2-18.9-9.7
			c-5.2-6.5-7.8-15.5-7.8-27.2c0-11.4,2.6-20.3,7.7-26.8c5.2-6.4,11.5-9.7,19-9.7C1024.9,566.5,1031.1,570.3,1035.7,578z
			 M1018,577.2c-5,0-9.3,2.3-12.8,6.8c-3.5,4.5-5.2,10.8-5.2,18.9c0,7.7,1.6,14,4.8,18.9c3.2,4.9,7.6,7.3,13.2,7.3s10-2.5,13.3-7.6
			c3.3-5,5-11.2,5-18.5c0-8.3-1.9-14.7-5.6-19.1C1027,579.4,1022.7,577.2,1018,577.2z"/>
	</g>
</g>
</svg>
