<?xml version="1.0" encoding="UTF-8"?> <!-- Generator: Adobe Illustrator 16.0.0, SVG Export Plug-In . SVG Version: 6.00 Build 0) --> <svg xmlns="http://www.w3.org/2000/svg" xmlns:xlink="http://www.w3.org/1999/xlink" id="Layer_1" x="0px" y="0px" width="174.834px" height="179.47px" viewBox="0 0 174.834 179.47" xml:space="preserve"> <g> <path fill="#FFFFFF" d="M48.053,93.313l-20.566,56.021h9.077l6.521-17.73h18.317l6.666,17.73h9.406L56.026,93.313H48.053z M46.177,123.204l2.733-7.691c1.213-3.404,2.268-6.365,3.136-8.83c0.678,1.814,1.503,3.982,2.496,6.598 c1.062,2.795,2.308,6.076,3.758,9.924H46.177z"></path> <polygon fill="#FFFFFF" points="47.29,30.135 47.29,74.067 56.786,74.067 56.786,39.629 133.61,39.629 111.908,61.319 111.908,74.779 147.04,39.629 147.165,39.629 147.165,30.135 "></polygon> <polygon fill="#FFFFFF" points="137.853,139.838 96.769,139.838 96.769,149.334 147.347,149.334 147.347,139.838 147.347,95.821 137.853,95.821 "></polygon> </g> </svg> 