<?xml version="1.0" standalone="no"?>
<!DOCTYPE svg PUBLIC "-//W3C//DTD SVG 20010904//EN"
 "http://www.w3.org/TR/2001/REC-SVG-20010904/DTD/svg10.dtd">
<svg version="1.0" xmlns="http://www.w3.org/2000/svg"
 width="2852.000000pt" height="2964.000000pt" viewBox="0 0 2852.000000 2964.000000"
 preserveAspectRatio="xMidYMid meet">

<g transform="translate(0.000000,2964.000000) scale(0.100000,-0.100000)"
fill="#000000" stroke="none">
<path d="M3500 21225 l0 -8405 765 0 765 0 0 7640 0 7640 10657 0 10658 0
-1918 -1918 -1917 -1917 0 -1085 0 -1085 3000 3000 3000 3000 0 767 0 768
-12505 0 -12505 0 0 -8405z"/>
<path d="M26980 10045 l0 -8435 -7812 -2 -7813 -3 -3 -767 -2 -768 8580 0
8580 0 0 9205 0 9205 -765 0 -765 0 0 -8435z"/>
<path d="M3603 9463 c-8 -21 -818 -2148 -1798 -4728 -981 -2580 -1786 -4698
-1790 -4708 -7 -16 31 -17 750 -15 l756 3 572 1505 572 1505 1616 3 1615 2
574 -1510 574 -1510 754 0 c599 0 753 3 750 13 -2 6 -814 2142 -1803 4745
l-1798 4732 -664 0 -664 0 -16 -37z m1222 -3617 l533 -1401 -1071 -3 c-589 -1
-1072 0 -1075 3 -4 4 1050 2791 1066 2820 3 5 8 3 10 -4 3 -8 244 -644 537
-1415z"/>
</g>
</svg>
